<?xml version="1.0" encoding="UTF-8"?>
<svg id="Layer_2" data-name="Layer 2" xmlns="http://www.w3.org/2000/svg" viewBox="0 0 485.89 129.06">
  <defs>
    <style>
      .cls-1 {
        fill: #faa61c;
      }

      .cls-1, .cls-2, .cls-3, .cls-4, .cls-5 {
        fill-rule: evenodd;
        stroke-width: 0px;
      }

      .cls-2 {
        fill: #127dc2;
      }

      .cls-3 {
        fill: #fff;
      }

      .cls-4 {
        fill: #1caee5;
      }

      .cls-5 {
        fill: #f37036;
      }
    </style>
  </defs>
  <g id="Layer_1-2" data-name="Layer 1">
    <path class="cls-4" d="M0,0v49.01h32.13v-14.6L0,0Z"/>
    <path class="cls-1" d="M0,129.06v-49.02h32.13v14.61L0,129.06Z"/>
    <path class="cls-5" d="M105.98,67.77l-56.83,61.14H8.94l56.81-61.14s40.23,0,40.23,0Z"/>
    <path class="cls-2" d="M105.98,61.29L49.15.13H8.94l56.82,61.15h40.22Z"/>
    <path class="cls-3" d="M124.12,31.86v46.19h44.31c5.24,0,9.41-1.55,12.51-4.65s4.61-6.61,4.61-10.62v-15.66c0-4.12-1.54-7.68-4.61-10.69-3.04-3.06-7.22-4.57-12.51-4.57,0,0-44.31,0-44.31,0ZM136.75,67.61v-25.62h28.48c2.27,0,4.12.64,5.55,1.95,1.43,1.21,2.15,2.89,2.15,5.05v11.71c0,2.09-.72,3.78-2.2,5.02-1.37,1.22-3.21,1.85-5.52,1.9h-28.46Z"/>
    <path class="cls-3" d="M205.57,28.42h-11.6v8.81h11.6s0-8.81,0-8.81ZM205.57,42.22h-11.6v35.83h11.6v-35.83Z"/>
    <path class="cls-3" d="M248.65,42.22l-12.51,26.65-12.52-26.65h-12.98l18.25,35.83h14.78l18.3-35.83h-13.32Z"/>
    <path class="cls-3" d="M268.62,31.86v46.19h44.32c5.24,0,9.41-1.55,12.5-4.65,3.07-3.07,4.62-6.61,4.62-10.62v-15.66c0-4.12-1.55-7.68-4.62-10.69-3.05-3.06-7.22-4.57-12.5-4.57,0,0-44.32,0-44.32,0ZM281.25,67.61v-25.62h28.46c2.27,0,4.12.64,5.55,1.95,1.44,1.21,2.16,2.89,2.16,5.05v11.71c0,2.09-.72,3.78-2.19,5.02-1.37,1.22-3.22,1.85-5.53,1.9h-28.45,0Z"/>
    <path class="cls-3" d="M368.95,62.78v7.06h-19.43c-1.03,0-1.92-.35-2.71-1.06-.68-.76-1.03-1.58-1.06-2.46.03-.97.38-1.8,1.06-2.48.71-.7,1.58-1.06,2.6-1.06h19.54,0ZM346.41,78.05h16.64c2.56,0,4.76-1.28,6.58-3.81l1.48,3.81h9.41v-23.31c0-4.43-1-7.61-2.97-9.56-1.97-1.97-4.74-2.96-8.27-2.96h-28.98l-2.76,8.12h27.36c1.24,0,2.21.38,2.95,1.14.73.68,1.1,1.51,1.1,2.48v3.92c-1.63-2-3.74-3.01-6.33-3.01h-16.21c-3.61,0-6.57,1.15-8.87,3.45-2.31,2.31-3.48,5.07-3.48,8.26,0,3,1.17,5.66,3.48,7.99,2.39,2.31,5.36,3.48,8.87,3.48Z"/>
    <path class="cls-3" d="M431.26,66.81c0-3.1-1.09-5.73-3.26-7.91-2.18-2.17-5.01-3.26-8.52-3.26h-17.12c-.81,0-1.48-.26-2.02-.8-.51-.54-.76-1.14-.76-1.84s.25-1.35.76-1.85c.51-.51,1.14-.77,1.88-.77h23.7l2.78-8.16h-28.73c-3.44,0-6.26,1.12-8.49,3.32-2.19,2.2-3.3,4.8-3.3,7.79s1.11,5.61,3.3,7.79c2.19,2.21,5.03,3.3,8.49,3.3h17.9c.75,0,1.38.27,1.9.81.53.46.81,1.09.81,1.91,0,.69-.27,1.28-.81,1.82s-1.23.81-2.05.81h-26.45l-2.79,8.28h31c3.43,0,6.28-1.12,8.52-3.38,2.17-2.16,3.26-4.78,3.26-7.86Z"/>
    <path class="cls-3" d="M474.33,78.05h11.56v-22.45c0-3.61-1.46-6.73-4.39-9.36-2.91-2.69-6.34-4.03-10.32-4.03h-11.17c-2.93,0-5.66,1.5-8.15,4.5.56-.85.82-2.22.82-4.09v-17.84l-11.56,7.07v46.19h11.56v-26.43h15.67c1.81,0,3.24.51,4.32,1.5,1.1.94,1.65,2.25,1.65,3.85v21.09h.01Z"/>
    <path class="cls-3" d="M172.76,91.29v11.3h-2.33v-11.3h2.33Z"/>
    <path class="cls-3" d="M177.71,94.79v7.8h-2.31v-11.3h2.68l4.91,7.38v-7.38h2.31v11.3h-2.39l-5.2-7.8Z"/>
    <path class="cls-3" d="M190.25,94.79v7.8h-2.31v-11.3h2.68l4.91,7.38v-7.38h2.31v11.3h-2.39l-5.2-7.8Z"/>
    <path class="cls-3" d="M199.78,96.93c0-1.61.58-2.99,1.74-4.13,1.14-1.13,2.53-1.71,4.17-1.71s2.99.56,4.12,1.68c1.15,1.1,1.71,2.47,1.71,4.1s-.58,3.05-1.72,4.17c-1.14,1.13-2.52,1.71-4.16,1.71s-3-.56-4.15-1.69c-1.13-1.12-1.71-2.5-1.71-4.13ZM203.2,94.41c-.69.69-1.01,1.53-1.01,2.51s.32,1.83,1.01,2.52c.68.7,1.51,1.05,2.46,1.05s1.79-.34,2.47-1.05c.67-.69,1-1.55,1-2.52s-.33-1.84-1-2.51c-.69-.69-1.51-1.04-2.47-1.04s-1.78.35-2.46,1.04Z"/>
    <path class="cls-3" d="M212.37,91.29h2.52l2.94,8.59,2.95-8.59h2.48l-4.1,11.3h-2.69l-4.1-11.3h0Z"/>
    <path class="cls-3" d="M225.82,102.59h-2.35l4.32-11.3h2.82l4.33,11.3h-2.4l-.85-2.28h-5.02l-.85,2.28ZM229.17,93.55l-1.71,4.58h3.41l-1.7-4.58Z"/>
    <path class="cls-3" d="M238.62,102.59v-9.04h-3.4v-2.28h9.11v2.28h-3.4v9.04h-2.31Z"/>
    <path class="cls-3" d="M245.96,91.29h7.4v2.19h-5.09v2.3h4.57v2.19h-4.57v2.46h5.12v2.18h-7.43v-11.32Z"/>
    <path class="cls-3" d="M273.82,96.93c0-1.61.57-2.99,1.7-4.13,1.13-1.13,2.52-1.71,4.17-1.71,1.14,0,2.19.3,3.12.89.96.59,1.61,1.41,2,2.46l-2.14.98c-.25-.63-.63-1.13-1.17-1.49s-1.15-.54-1.85-.54c-.98,0-1.79.34-2.45,1.02-.65.69-.98,1.53-.98,2.51s.33,1.85.97,2.54,1.47,1.02,2.46,1.02c.69,0,1.3-.18,1.83-.58.54-.38.94-.88,1.2-1.52l2.15,1c-.38,1.03-1.06,1.85-2.03,2.47-.97.59-2.03.89-3.18.89-1.67,0-3.05-.57-4.15-1.67-1.09-1.1-1.65-2.48-1.65-4.14h0Z"/>
    <path class="cls-3" d="M295.22,102.59h-2.6l-2.34-4.05h-1.42v4.05h-2.33v-11.3h4.46c1.14,0,2.09.31,2.86.93.76.62,1.14,1.48,1.14,2.64,0,1.63-.77,2.73-2.33,3.3l2.56,4.43ZM288.86,93.48v2.88h1.96c.51,0,.94-.14,1.3-.38.33-.25.51-.62.51-1.08s-.16-.83-.5-1.07c-.33-.23-.77-.35-1.32-.35h-1.95,0Z"/>
    <path class="cls-3" d="M297.08,91.29h7.42v2.19h-5.11v2.3h4.57v2.19h-4.57v2.46h5.12v2.18h-7.43v-11.32h0Z"/>
    <path class="cls-3" d="M307.69,102.59h-2.36l4.33-11.3h2.81l4.33,11.3h-2.4l-.86-2.28h-5.01l-.84,2.28ZM311.04,93.55l-1.71,4.58h3.41l-1.7-4.58Z"/>
    <path class="cls-3" d="M320.49,102.59v-9.04h-3.4v-2.28h9.11v2.28h-3.4v9.04h-2.31Z"/>
    <path class="cls-3" d="M327.83,91.29h7.42v2.19h-5.11v2.3h4.57v2.19h-4.57v2.46h5.12v2.18h-7.43v-11.32h0Z"/>
    <path class="cls-3" d="M359.55,95.77c1.38.39,2.39.85,3,1.39.63.52.94,1.24.94,2.11,0,1.04-.36,1.88-1.09,2.52-.74.65-1.75.98-3.06.98-1.05,0-1.97-.24-2.73-.71-.78-.46-1.34-1.12-1.68-1.95l2.02-1.05c.22.51.56.88.98,1.17.42.28.92.41,1.49.41.5,0,.92-.11,1.23-.33.33-.22.49-.51.49-.87,0-.33-.16-.59-.45-.77-.3-.21-.87-.45-1.69-.69-1.32-.39-2.24-.85-2.76-1.36-.58-.57-.87-1.26-.87-2.1,0-1,.4-1.8,1.16-2.45.76-.64,1.69-.97,2.79-.97.94,0,1.76.21,2.45.63.69.44,1.19,1.03,1.53,1.82l-1.94,1.05c-.38-.92-1.09-1.38-2.14-1.38-.46,0-.81.1-1.09.31s-.41.5-.41.84.15.59.41.8c.29.21.75.41,1.42.6Z"/>
    <path class="cls-3" d="M372.05,91.29h2.31v6.75c0,1.49-.4,2.66-1.17,3.48-.78.81-1.9,1.25-3.4,1.25s-2.6-.41-3.36-1.24c-.76-.81-1.16-1.96-1.16-3.41v-6.83h2.35v6.76c-.01.79.2,1.39.59,1.81.4.42.94.63,1.61.63s1.26-.21,1.65-.63c.39-.42.58-1,.58-1.74v-6.83h0Z"/>
    <path class="cls-3" d="M376.18,96.93c0-1.61.58-2.99,1.71-4.13,1.13-1.13,2.52-1.71,4.15-1.71,1.15,0,2.2.3,3.14.89s1.61,1.41,1.99,2.46l-2.14.98c-.25-.63-.63-1.13-1.17-1.49s-1.15-.54-1.85-.54c-.97,0-1.78.34-2.44,1.02-.66.69-.98,1.53-.98,2.51s.32,1.85.97,2.54c.64.69,1.47,1.02,2.45,1.02.7,0,1.3-.18,1.84-.58.54-.38.93-.88,1.19-1.52l2.16,1c-.38,1.03-1.07,1.85-2.04,2.47-.97.59-2.02.89-3.17.89-1.66,0-3.04-.57-4.15-1.67-1.09-1.1-1.66-2.48-1.66-4.14h0Z"/>
    <path class="cls-3" d="M388.21,96.93c0-1.61.56-2.99,1.71-4.13,1.12-1.13,2.52-1.71,4.14-1.71,1.16,0,2.2.3,3.14.89.95.59,1.62,1.41,2,2.46l-2.16.98c-.23-.63-.63-1.13-1.15-1.49-.54-.36-1.16-.54-1.85-.54-.97,0-1.79.34-2.44,1.02-.66.69-.99,1.53-.99,2.51s.33,1.85.96,2.54c.66.69,1.48,1.02,2.45,1.02.69,0,1.3-.18,1.84-.58.54-.38.93-.88,1.2-1.52l2.15,1c-.38,1.03-1.06,1.85-2.03,2.47-.98.59-2.03.89-3.18.89-1.66,0-3.03-.57-4.15-1.67-1.09-1.1-1.64-2.48-1.64-4.14h0Z"/>
    <path class="cls-3" d="M400.92,91.29h7.42v2.19h-5.11v2.3h4.57v2.19h-4.57v2.46h5.12v2.18h-7.43v-11.32h0Z"/>
    <path class="cls-3" d="M410.49,91.29h7.42v2.19h-5.1v2.3h4.57v2.19h-4.57v2.46h5.12v2.18h-7.44v-11.32Z"/>
    <path class="cls-3" d="M429.92,96.91c0,1.7-.58,3.07-1.73,4.11-1.16,1.05-2.72,1.56-4.69,1.56h-3.43v-11.31h3.47c1.98,0,3.54.5,4.69,1.49,1.11,1,1.69,2.37,1.69,4.15ZM427.52,96.91c0-1.09-.37-1.93-1.11-2.51-.74-.62-1.68-.92-2.82-.92h-1.18v6.89h1.15c1.2,0,2.16-.3,2.88-.9.71-.62,1.08-1.47,1.08-2.56Z"/>
    <path class="cls-3" d="M264.05,89.71v14.55h-1.1v-14.55h1.1Z"/>
    <path class="cls-3" d="M345.92,89.71v14.55h-1.09v-14.55h1.09Z"/>
  </g>
</svg>